<svg xmlns="http://www.w3.org/2000/svg" xmlns:xlink="http://www.w3.org/1999/xlink" width="24" height="24" viewBox="0 0 24 24">
    <defs>
        <path id="c76u51hd3a" d="M0 0H24V24H0z"/>
    </defs>
    <g fill="none" fill-rule="evenodd">
        <g>
            <g>
                <g transform="translate(-520 -540) translate(480 294) translate(40 246)">
                    <mask id="ahe43v7i7b" fill="#fff">
                        <use xlink:href="#c76u51hd3a"/>
                    </mask>
                    <g fill="#056EB5" stroke="#056EB5" stroke-width=".5" mask="url(#ahe43v7i7b)">
                        <g>
                            <path d="M7.92.178c-4.162.11-7.51 3.628-7.615 8 .07 1.292.41 2.553.994 3.693l.059.111c4.603 7.751 5.977 7.751 6.561 7.751.914 0 1.9-.675 4.23-4.12 1.223-1.777 2.272-3.555 2.314-3.635l.06-.107c.59-1.138.935-2.4 1.01-3.693-.104-4.372-3.453-7.89-7.614-8h0zm5.499 11.11s-4.23 7.112-5.5 7.112c-1.269 0-5.5-7.111-5.5-7.111-.491-.961-.78-2.022-.845-3.111 0-3.682 2.84-6.667 6.345-6.667s6.346 2.985 6.346 6.667c-.07 1.09-.363 2.151-.86 3.11h.014z" transform="translate(4 2)"/>
                            <path d="M7.92 4.178c-1.87 0-3.385 1.592-3.385 3.555 0 1.964 1.515 3.556 3.384 3.556 1.87 0 3.384-1.592 3.384-3.556 0-1.963-1.515-3.555-3.384-3.555zm0 5.778c-1.169 0-2.116-.995-2.116-2.223 0-1.227.947-2.222 2.115-2.222 1.168 0 2.115.995 2.115 2.222 0 1.228-.947 2.223-2.115 2.223z" transform="translate(4 2)"/>
                        </g>
                    </g>
                </g>
            </g>
        </g>
    </g>
</svg>
