<svg xmlns="http://www.w3.org/2000/svg" width="48" height="48" viewBox="0 0 48 48">
    <g fill="none" fill-rule="evenodd">
        <g>
            <g>
                <g transform="translate(-456 -612) translate(440 596) translate(16 16)">
                    <rect width="48" height="48" fill="#EEE" rx="24"/>
                    <g fill="#273D52" fill-rule="nonzero">
                        <path d="M20.815 13.933h-3.981c-1.09 0-1.976.886-1.976 1.976v3.053c0 1.09.886 1.975 1.976 1.975h3.98c1.09 0 1.976-.886 1.976-1.975v-3.053c0-1.09-.886-1.976-1.975-1.976zm.538 5.029c0 .3-.245.539-.538.539h-3.981c-.3 0-.539-.246-.539-.54V15.91c0-.3.245-.539.539-.539h3.98c.3 0 .54.246.54.539v3.053z" transform="translate(9.333 12)"/>
                        <path stroke="#273D52" stroke-width=".5" d="M29.297 8.384c0-.126-.03-.245-.095-.353L24.844.368c-.126-.221-.366-.365-.623-.365H5.071c-.258 0-.497.138-.623.365L.096 8.031c-.06.108-.096.227-.096.353 0 1.718 1.036 3.19 2.514 3.843v12.637c0 .396.324.719.719.719h22.826c.395 0 .718-.323.718-.719V12.317c0-.03 0-.054-.006-.078 1.485-.652 2.526-2.131 2.526-3.855zM5.49 1.446h18.312l3.406 5.992H2.09l3.4-5.992zm15.36 7.423c-.227 1.293-1.358 2.275-2.717 2.275-1.36 0-2.49-.982-2.718-2.275h5.436zm-6.962 0c-.227 1.293-1.358 2.275-2.717 2.275-1.36 0-2.49-.982-2.724-2.275h5.441zm-12.403 0h5.441c-.227 1.293-1.365 2.275-2.724 2.275-1.358.006-2.49-.982-2.717-2.275zm10.584 15.277H7.938v-7.752c0-.563.455-1.024 1.024-1.024h2.089c.563 0 1.024.455 1.024 1.024v7.752h-.006zm13.271 0H13.505v-7.752c0-1.353-1.101-2.46-2.46-2.46h-2.09c-1.352 0-2.46 1.1-2.46 2.46v7.758H3.951V12.58c.084.006.168.006.251.006 1.45 0 2.73-.736 3.485-1.855.754 1.12 2.035 1.855 3.484 1.855 1.448 0 2.723-.736 3.484-1.855.754 1.12 2.035 1.855 3.478 1.855 1.448 0 2.724-.736 3.478-1.855.754 1.12 2.035 1.855 3.484 1.855.084 0 .162-.006.245-.006v11.566h0zm-.245-12.996c-1.359 0-2.49-.982-2.718-2.275h5.442c-.234 1.287-1.365 2.275-2.724 2.275z" transform="translate(9.333 12)"/>
                    </g>
                </g>
            </g>
        </g>
    </g>
</svg>
