<svg xmlns="http://www.w3.org/2000/svg" xmlns:xlink="http://www.w3.org/1999/xlink" width="24" height="24" viewBox="0 0 24 24">
    <defs>
        <path id="06b7dzlhda" d="M0 0H24V24H0z"/>
    </defs>
    <g fill="none" fill-rule="evenodd">
        <g>
            <g>
                <g>
                    <g>
                        <g>
                            <g transform="translate(-295 -311) translate(240 274) translate(15) translate(40 32) translate(0 5) rotate(90 12 12)">
                                <mask id="gbr9yw2q1b" fill="#fff">
                                    <use xlink:href="#06b7dzlhda"/>
                                </mask>
                                <path fill="#273D52" d="M7.214 2.786l-.428.428c-.434.434-.434 1.137 0 1.571l6.43 6.429c.434.433.434 1.137 0 1.571l-6.43 6.43c-.434.434-.434 1.137 0 1.571l.428.428c.434.434 1.138.434 1.572 0l8.428-8.429c.434-.434.434-1.137 0-1.571L8.786 2.786c-.434-.434-1.138-.434-1.572 0z" mask="url(#gbr9yw2q1b)" transform="rotate(90 12 12)"/>
                            </g>
                        </g>
                    </g>
                </g>
            </g>
        </g>
    </g>
</svg>
